<mxfile host="app.diagrams.net" modified="2024-04-22T11:33:38.363Z" agent="Mozilla/5.0 (Windows NT 10.0; Win64; x64) AppleWebKit/537.36 (KHTML, like Gecko) Chrome/124.0.0.0 Safari/537.36" etag="fGOIK3Ou5NuJgUmRBFiC" version="24.2.7" type="device">
  <diagram name="Page-1" id="074YDvSw86xs69HkWUpg">
    <mxGraphModel dx="867" dy="1676" grid="1" gridSize="10" guides="1" tooltips="1" connect="1" arrows="1" fold="1" page="1" pageScale="1" pageWidth="827" pageHeight="1169" math="0" shadow="0">
      <root>
        <mxCell id="0" />
        <mxCell id="1" parent="0" />
        <mxCell id="HWyCBtThoKn_G8zzRqht-1" value="&lt;span style=&quot;font-size: 15px;&quot;&gt;json&amp;nbsp; files&lt;/span&gt;" style="shape=note;whiteSpace=wrap;html=1;backgroundOutline=1;darkOpacity=0.05;fillColor=#dae8fc;strokeColor=#6c8ebf;strokeWidth=3;align=center;labelPosition=center;verticalLabelPosition=bottom;verticalAlign=top;" parent="1" vertex="1">
          <mxGeometry x="177" y="-731" width="80" height="100" as="geometry" />
        </mxCell>
        <mxCell id="HWyCBtThoKn_G8zzRqht-3" value="&lt;span style=&quot;font-size: 15px;&quot;&gt;PY files&lt;/span&gt;" style="shape=note;whiteSpace=wrap;html=1;backgroundOutline=1;darkOpacity=0.05;fillColor=#d5e8d4;strokeColor=#82b366;strokeWidth=3;align=center;labelPosition=center;verticalLabelPosition=bottom;verticalAlign=top;" parent="1" vertex="1">
          <mxGeometry x="289" y="-731" width="80" height="100" as="geometry" />
        </mxCell>
        <mxCell id="HWyCBtThoKn_G8zzRqht-5" value="&lt;font style=&quot;font-size: 15px;&quot;&gt;Server&lt;/font&gt;" style="sketch=0;outlineConnect=0;fontColor=#232F3E;gradientColor=none;fillColor=#232F3D;strokeColor=none;dashed=0;verticalLabelPosition=bottom;verticalAlign=top;align=center;html=1;fontSize=12;fontStyle=0;aspect=fixed;pointerEvents=1;shape=mxgraph.aws4.traditional_server;" parent="1" vertex="1">
          <mxGeometry x="394" y="-731" width="58.85" height="102" as="geometry" />
        </mxCell>
        <mxCell id="HWyCBtThoKn_G8zzRqht-8" style="edgeStyle=orthogonalEdgeStyle;rounded=0;orthogonalLoop=1;jettySize=auto;html=1;strokeWidth=3;endArrow=classicThin;endFill=1;" parent="1" source="HWyCBtThoKn_G8zzRqht-6" target="HWyCBtThoKn_G8zzRqht-7" edge="1">
          <mxGeometry relative="1" as="geometry" />
        </mxCell>
        <mxCell id="HWyCBtThoKn_G8zzRqht-10" style="edgeStyle=orthogonalEdgeStyle;rounded=0;orthogonalLoop=1;jettySize=auto;html=1;strokeColor=default;strokeWidth=3;align=center;verticalAlign=middle;fontFamily=Helvetica;fontSize=11;fontColor=default;labelBackgroundColor=default;endArrow=classicThin;endFill=1;" parent="1" source="HWyCBtThoKn_G8zzRqht-7" target="HWyCBtThoKn_G8zzRqht-9" edge="1">
          <mxGeometry relative="1" as="geometry" />
        </mxCell>
        <mxCell id="HWyCBtThoKn_G8zzRqht-7" value="&lt;span style=&quot;font-size: 15px;&quot;&gt;TrainingGUI.py&lt;/span&gt;" style="shape=note;whiteSpace=wrap;html=1;backgroundOutline=1;darkOpacity=0.05;fillColor=#d5e8d4;strokeColor=#82b366;strokeWidth=3;align=center;labelPosition=center;verticalLabelPosition=bottom;verticalAlign=top;" parent="1" vertex="1">
          <mxGeometry x="219.42000000000002" y="-350" width="80" height="100" as="geometry" />
        </mxCell>
        <mxCell id="HWyCBtThoKn_G8zzRqht-6" value="&lt;font style=&quot;font-size: 15px;&quot;&gt;Server&lt;/font&gt;" style="sketch=0;outlineConnect=0;fontColor=#232F3E;gradientColor=none;fillColor=#232F3D;strokeColor=none;dashed=0;verticalLabelPosition=top;verticalAlign=bottom;align=center;html=1;fontSize=12;fontStyle=0;aspect=fixed;pointerEvents=1;shape=mxgraph.aws4.traditional_server;labelPosition=center;" parent="1" vertex="1">
          <mxGeometry x="230" y="-510" width="58.85" height="102" as="geometry" />
        </mxCell>
        <mxCell id="HWyCBtThoKn_G8zzRqht-12" style="edgeStyle=orthogonalEdgeStyle;rounded=0;orthogonalLoop=1;jettySize=auto;html=1;strokeColor=default;strokeWidth=3;align=center;verticalAlign=middle;fontFamily=Helvetica;fontSize=11;fontColor=default;labelBackgroundColor=default;endArrow=classicThin;endFill=1;" parent="1" source="HWyCBtThoKn_G8zzRqht-9" target="HWyCBtThoKn_G8zzRqht-11" edge="1">
          <mxGeometry relative="1" as="geometry" />
        </mxCell>
        <mxCell id="HWyCBtThoKn_G8zzRqht-9" value="&lt;span style=&quot;font-size: 15px;&quot;&gt;Training.py&lt;/span&gt;" style="shape=note;whiteSpace=wrap;html=1;backgroundOutline=1;darkOpacity=0.05;fillColor=#d5e8d4;strokeColor=#82b366;strokeWidth=3;align=center;labelPosition=center;verticalLabelPosition=bottom;verticalAlign=top;" parent="1" vertex="1">
          <mxGeometry x="389.42" y="-350" width="80" height="100" as="geometry" />
        </mxCell>
        <mxCell id="HWyCBtThoKn_G8zzRqht-11" value="&lt;span style=&quot;font-size: 15px;&quot;&gt;Installs.py&lt;/span&gt;" style="shape=note;whiteSpace=wrap;html=1;backgroundOutline=1;darkOpacity=0.05;fillColor=#d5e8d4;strokeColor=#82b366;strokeWidth=3;align=center;labelPosition=center;verticalLabelPosition=top;verticalAlign=bottom;" parent="1" vertex="1">
          <mxGeometry x="389.42" y="-520" width="80" height="100" as="geometry" />
        </mxCell>
        <mxCell id="HWyCBtThoKn_G8zzRqht-13" value="&lt;span style=&quot;font-size: 15px;&quot;&gt;Intents.JSON&lt;/span&gt;" style="shape=note;whiteSpace=wrap;html=1;backgroundOutline=1;darkOpacity=0.05;fillColor=#dae8fc;strokeColor=#6c8ebf;strokeWidth=3;align=center;labelPosition=center;verticalLabelPosition=bottom;verticalAlign=top;" parent="1" vertex="1">
          <mxGeometry x="580" y="-350" width="80" height="100" as="geometry" />
        </mxCell>
        <mxCell id="HWyCBtThoKn_G8zzRqht-14" style="edgeStyle=orthogonalEdgeStyle;rounded=0;orthogonalLoop=1;jettySize=auto;html=1;entryX=0;entryY=0.5;entryDx=0;entryDy=0;entryPerimeter=0;strokeColor=default;strokeWidth=3;align=center;verticalAlign=middle;fontFamily=Helvetica;fontSize=11;fontColor=default;labelBackgroundColor=default;endArrow=classicThin;endFill=1;" parent="1" source="HWyCBtThoKn_G8zzRqht-9" target="HWyCBtThoKn_G8zzRqht-13" edge="1">
          <mxGeometry relative="1" as="geometry" />
        </mxCell>
        <mxCell id="HWyCBtThoKn_G8zzRqht-16" value="&lt;span style=&quot;font-size: 15px;&quot;&gt;temp/pickle files&lt;/span&gt;" style="shape=note;whiteSpace=wrap;html=1;backgroundOutline=1;darkOpacity=0.05;fillColor=#f8cecc;strokeColor=#b85450;strokeWidth=3;align=center;labelPosition=center;verticalLabelPosition=bottom;verticalAlign=top;" parent="1" vertex="1">
          <mxGeometry x="67" y="-729" width="80" height="100" as="geometry" />
        </mxCell>
        <mxCell id="HWyCBtThoKn_G8zzRqht-18" value="&lt;span style=&quot;font-size: 15px;&quot;&gt;data.pth&lt;/span&gt;" style="shape=note;whiteSpace=wrap;html=1;backgroundOutline=1;darkOpacity=0.05;fillColor=#f8cecc;strokeColor=#b85450;strokeWidth=3;align=center;labelPosition=center;verticalLabelPosition=bottom;verticalAlign=top;" parent="1" vertex="1">
          <mxGeometry x="580" y="-200" width="80" height="100" as="geometry" />
        </mxCell>
        <mxCell id="HWyCBtThoKn_G8zzRqht-19" style="edgeStyle=orthogonalEdgeStyle;rounded=0;orthogonalLoop=1;jettySize=auto;html=1;entryX=0.003;entryY=0.604;entryDx=0;entryDy=0;entryPerimeter=0;strokeColor=default;strokeWidth=3;align=center;verticalAlign=middle;fontFamily=Helvetica;fontSize=11;fontColor=default;labelBackgroundColor=default;endArrow=classicThin;endFill=1;" parent="1" source="HWyCBtThoKn_G8zzRqht-9" target="HWyCBtThoKn_G8zzRqht-18" edge="1">
          <mxGeometry relative="1" as="geometry">
            <Array as="points">
              <mxPoint x="510" y="-300" />
              <mxPoint x="510" y="-140" />
            </Array>
          </mxGeometry>
        </mxCell>
        <mxCell id="HWyCBtThoKn_G8zzRqht-20" value="&lt;font style=&quot;font-size: 15px;&quot;&gt;Save Epoc data to file.&lt;/font&gt;" style="edgeLabel;html=1;align=center;verticalAlign=middle;resizable=0;points=[];fontFamily=Helvetica;fontSize=11;fontColor=default;labelBackgroundColor=default;rotation=0;" parent="HWyCBtThoKn_G8zzRqht-19" vertex="1" connectable="0">
          <mxGeometry x="0.0328" y="5" relative="1" as="geometry">
            <mxPoint x="235" y="51" as="offset" />
          </mxGeometry>
        </mxCell>
        <mxCell id="HWyCBtThoKn_G8zzRqht-21" value="&lt;span style=&quot;font-size: 15px;&quot;&gt;model.py&lt;/span&gt;" style="shape=note;whiteSpace=wrap;html=1;backgroundOutline=1;darkOpacity=0.05;fillColor=#d5e8d4;strokeColor=#82b366;strokeWidth=3;align=center;labelPosition=center;verticalLabelPosition=bottom;verticalAlign=top;" parent="1" vertex="1">
          <mxGeometry x="580" y="-40" width="80" height="100" as="geometry" />
        </mxCell>
        <mxCell id="HWyCBtThoKn_G8zzRqht-24" style="edgeStyle=orthogonalEdgeStyle;rounded=0;orthogonalLoop=1;jettySize=auto;html=1;entryX=0;entryY=0.5;entryDx=0;entryDy=0;entryPerimeter=0;strokeColor=default;strokeWidth=3;align=center;verticalAlign=middle;fontFamily=Helvetica;fontSize=11;fontColor=default;labelBackgroundColor=default;endArrow=classicThin;endFill=1;" parent="1" source="HWyCBtThoKn_G8zzRqht-9" target="HWyCBtThoKn_G8zzRqht-21" edge="1">
          <mxGeometry relative="1" as="geometry">
            <Array as="points">
              <mxPoint x="510" y="-300" />
              <mxPoint x="510" y="10" />
            </Array>
          </mxGeometry>
        </mxCell>
        <mxCell id="HWyCBtThoKn_G8zzRqht-28" value="&lt;span style=&quot;font-size: 15px;&quot;&gt;textprocessing.py&amp;nbsp;&lt;/span&gt;" style="shape=note;whiteSpace=wrap;html=1;backgroundOutline=1;darkOpacity=0.05;fillColor=#d5e8d4;strokeColor=#82b366;strokeWidth=3;align=center;labelPosition=center;verticalLabelPosition=bottom;verticalAlign=top;" parent="1" vertex="1">
          <mxGeometry x="580" y="110" width="80" height="100" as="geometry" />
        </mxCell>
        <mxCell id="HWyCBtThoKn_G8zzRqht-29" style="edgeStyle=orthogonalEdgeStyle;rounded=0;orthogonalLoop=1;jettySize=auto;html=1;entryX=-0.003;entryY=0.709;entryDx=0;entryDy=0;entryPerimeter=0;strokeColor=default;strokeWidth=3;align=center;verticalAlign=middle;fontFamily=Helvetica;fontSize=11;fontColor=default;labelBackgroundColor=default;endArrow=classicThin;endFill=1;" parent="1" source="HWyCBtThoKn_G8zzRqht-9" target="HWyCBtThoKn_G8zzRqht-28" edge="1">
          <mxGeometry relative="1" as="geometry">
            <Array as="points">
              <mxPoint x="510" y="-300" />
              <mxPoint x="510" y="181" />
            </Array>
          </mxGeometry>
        </mxCell>
        <mxCell id="djRNfbAMk5YaThyVDoqL-1" value="&lt;span style=&quot;font-size: 15px;&quot;&gt;use input layer hidden layer&lt;/span&gt;&lt;div&gt;&lt;span style=&quot;font-size: 15px;&quot;&gt;&amp;nbsp;and output layer to transfer data.&lt;/span&gt;&lt;/div&gt;" style="edgeLabel;html=1;align=center;verticalAlign=middle;resizable=0;points=[];fontFamily=Helvetica;fontSize=11;fontColor=default;labelBackgroundColor=default;rotation=0;" vertex="1" connectable="0" parent="1">
          <mxGeometry x="780" y="9.998823529411794" as="geometry" />
        </mxCell>
        <mxCell id="djRNfbAMk5YaThyVDoqL-2" value="&lt;span style=&quot;font-size: 15px;&quot;&gt;use functions to process text.&lt;/span&gt;" style="edgeLabel;html=1;align=center;verticalAlign=middle;resizable=0;points=[];fontFamily=Helvetica;fontSize=11;fontColor=default;labelBackgroundColor=default;rotation=0;" vertex="1" connectable="0" parent="1">
          <mxGeometry x="780" y="159.9988235294118" as="geometry">
            <mxPoint x="-4" y="3" as="offset" />
          </mxGeometry>
        </mxCell>
        <mxCell id="djRNfbAMk5YaThyVDoqL-3" value="&lt;span style=&quot;font-size: 20px;&quot;&gt;&lt;b&gt;Training model Structure diagram&lt;/b&gt;&lt;/span&gt;" style="text;html=1;align=center;verticalAlign=middle;whiteSpace=wrap;rounded=0;fontFamily=Helvetica;fontSize=11;fontColor=default;labelBackgroundColor=default;" vertex="1" parent="1">
          <mxGeometry x="520" y="-430" width="360" height="30" as="geometry" />
        </mxCell>
      </root>
    </mxGraphModel>
  </diagram>
</mxfile>
